<mxfile host="app.diagrams.net" modified="2023-08-19T01:28:19.186Z" agent="Mozilla/5.0 (X11; Linux x86_64) AppleWebKit/537.36 (KHTML, like Gecko) Chrome/115.0.0.0 Safari/537.36" etag="eB21c57i-SWWm3MDfIGJ" version="21.6.8" type="device">
  <diagram id="INVIZvrE2KBBbGmbX691" name="Page-1">
    <mxGraphModel dx="1839" dy="1650" grid="1" gridSize="10" guides="1" tooltips="1" connect="1" arrows="1" fold="1" page="1" pageScale="1" pageWidth="850" pageHeight="1100" math="0" shadow="0">
      <root>
        <mxCell id="0" />
        <mxCell id="1" parent="0" />
        <mxCell id="HcXDAk4co6BFIyga0vMn-15" value="Ingrediente" style="html=1;" parent="1" vertex="1">
          <mxGeometry x="380" y="600" width="110" height="50" as="geometry" />
        </mxCell>
        <mxCell id="HcXDAk4co6BFIyga0vMn-39" style="edgeStyle=orthogonalEdgeStyle;rounded=0;orthogonalLoop=1;jettySize=auto;html=1;endArrow=none;endFill=0;" parent="1" source="HcXDAk4co6BFIyga0vMn-16" target="HcXDAk4co6BFIyga0vMn-37" edge="1">
          <mxGeometry relative="1" as="geometry" />
        </mxCell>
        <mxCell id="HcXDAk4co6BFIyga0vMn-16" value="Cardapio" style="html=1;" parent="1" vertex="1">
          <mxGeometry x="90" y="420" width="110" height="50" as="geometry" />
        </mxCell>
        <mxCell id="HcXDAk4co6BFIyga0vMn-45" style="edgeStyle=orthogonalEdgeStyle;rounded=0;orthogonalLoop=1;jettySize=auto;html=1;entryX=1;entryY=0.5;entryDx=0;entryDy=0;endArrow=none;endFill=0;" parent="1" source="HcXDAk4co6BFIyga0vMn-18" target="HcXDAk4co6BFIyga0vMn-37" edge="1">
          <mxGeometry relative="1" as="geometry" />
        </mxCell>
        <mxCell id="9sg7S3EA_mHytwgNz2Ep-22" style="edgeStyle=orthogonalEdgeStyle;rounded=0;orthogonalLoop=1;jettySize=auto;html=1;entryX=0;entryY=1;entryDx=0;entryDy=0;exitX=1.018;exitY=0.145;exitDx=0;exitDy=0;exitPerimeter=0;endArrow=none;endFill=0;" edge="1" parent="1" source="HcXDAk4co6BFIyga0vMn-18" target="9sg7S3EA_mHytwgNz2Ep-19">
          <mxGeometry relative="1" as="geometry" />
        </mxCell>
        <mxCell id="9sg7S3EA_mHytwgNz2Ep-23" style="edgeStyle=orthogonalEdgeStyle;rounded=0;orthogonalLoop=1;jettySize=auto;html=1;exitX=1;exitY=0.5;exitDx=0;exitDy=0;entryX=0;entryY=0.5;entryDx=0;entryDy=0;endArrow=none;endFill=0;" edge="1" parent="1" source="HcXDAk4co6BFIyga0vMn-18" target="9sg7S3EA_mHytwgNz2Ep-20">
          <mxGeometry relative="1" as="geometry" />
        </mxCell>
        <mxCell id="9sg7S3EA_mHytwgNz2Ep-24" style="edgeStyle=orthogonalEdgeStyle;rounded=0;orthogonalLoop=1;jettySize=auto;html=1;exitX=1;exitY=0.75;exitDx=0;exitDy=0;entryX=0;entryY=0;entryDx=0;entryDy=0;endArrow=none;endFill=0;" edge="1" parent="1" source="HcXDAk4co6BFIyga0vMn-18" target="9sg7S3EA_mHytwgNz2Ep-21">
          <mxGeometry relative="1" as="geometry" />
        </mxCell>
        <mxCell id="HcXDAk4co6BFIyga0vMn-18" value="Porcao" style="html=1;" parent="1" vertex="1">
          <mxGeometry x="380" y="420" width="110" height="50" as="geometry" />
        </mxCell>
        <mxCell id="HcXDAk4co6BFIyga0vMn-21" style="edgeStyle=orthogonalEdgeStyle;rounded=0;orthogonalLoop=1;jettySize=auto;html=1;endArrow=none;endFill=0;" parent="1" source="HcXDAk4co6BFIyga0vMn-20" target="HcXDAk4co6BFIyga0vMn-15" edge="1">
          <mxGeometry relative="1" as="geometry" />
        </mxCell>
        <mxCell id="HcXDAk4co6BFIyga0vMn-22" style="edgeStyle=orthogonalEdgeStyle;rounded=0;orthogonalLoop=1;jettySize=auto;html=1;endArrow=none;endFill=0;" parent="1" source="HcXDAk4co6BFIyga0vMn-20" target="HcXDAk4co6BFIyga0vMn-18" edge="1">
          <mxGeometry relative="1" as="geometry" />
        </mxCell>
        <mxCell id="HcXDAk4co6BFIyga0vMn-20" value="leva" style="shape=rhombus;perimeter=rhombusPerimeter;whiteSpace=wrap;html=1;align=center;" parent="1" vertex="1">
          <mxGeometry x="375" y="500" width="120" height="60" as="geometry" />
        </mxCell>
        <mxCell id="HcXDAk4co6BFIyga0vMn-25" style="edgeStyle=orthogonalEdgeStyle;rounded=0;orthogonalLoop=1;jettySize=auto;html=1;endArrow=none;endFill=0;exitX=0;exitY=0;exitDx=0;exitDy=0;entryX=0.25;entryY=1;entryDx=0;entryDy=0;" parent="1" source="HcXDAk4co6BFIyga0vMn-24" target="HcXDAk4co6BFIyga0vMn-15" edge="1">
          <mxGeometry relative="1" as="geometry">
            <mxPoint x="410" y="660" as="targetPoint" />
            <Array as="points">
              <mxPoint x="410" y="650" />
            </Array>
          </mxGeometry>
        </mxCell>
        <mxCell id="HcXDAk4co6BFIyga0vMn-26" style="edgeStyle=orthogonalEdgeStyle;rounded=0;orthogonalLoop=1;jettySize=auto;html=1;endArrow=none;endFill=0;" parent="1" edge="1">
          <mxGeometry relative="1" as="geometry">
            <mxPoint x="463" y="710" as="sourcePoint" />
            <mxPoint x="463" y="650" as="targetPoint" />
          </mxGeometry>
        </mxCell>
        <mxCell id="HcXDAk4co6BFIyga0vMn-24" value="compoe" style="shape=rhombus;perimeter=rhombusPerimeter;whiteSpace=wrap;html=1;align=center;" parent="1" vertex="1">
          <mxGeometry x="380" y="690" width="120" height="60" as="geometry" />
        </mxCell>
        <mxCell id="HcXDAk4co6BFIyga0vMn-27" value="Nutriente" style="whiteSpace=wrap;html=1;align=center;" parent="1" vertex="1">
          <mxGeometry x="690" y="605" width="100" height="40" as="geometry" />
        </mxCell>
        <mxCell id="HcXDAk4co6BFIyga0vMn-30" style="edgeStyle=orthogonalEdgeStyle;rounded=0;orthogonalLoop=1;jettySize=auto;html=1;endArrow=none;endFill=0;" parent="1" source="HcXDAk4co6BFIyga0vMn-29" target="HcXDAk4co6BFIyga0vMn-27" edge="1">
          <mxGeometry relative="1" as="geometry">
            <mxPoint x="670" y="625" as="targetPoint" />
          </mxGeometry>
        </mxCell>
        <mxCell id="HcXDAk4co6BFIyga0vMn-31" style="edgeStyle=orthogonalEdgeStyle;rounded=0;orthogonalLoop=1;jettySize=auto;html=1;endArrow=none;endFill=0;" parent="1" source="HcXDAk4co6BFIyga0vMn-29" target="HcXDAk4co6BFIyga0vMn-15" edge="1">
          <mxGeometry relative="1" as="geometry" />
        </mxCell>
        <mxCell id="HcXDAk4co6BFIyga0vMn-29" value="contem" style="shape=rhombus;perimeter=rhombusPerimeter;whiteSpace=wrap;html=1;align=center;" parent="1" vertex="1">
          <mxGeometry x="520" y="595" width="120" height="60" as="geometry" />
        </mxCell>
        <mxCell id="HcXDAk4co6BFIyga0vMn-49" style="edgeStyle=orthogonalEdgeStyle;rounded=0;orthogonalLoop=1;jettySize=auto;html=1;endArrow=none;endFill=0;" parent="1" source="HcXDAk4co6BFIyga0vMn-32" edge="1">
          <mxGeometry relative="1" as="geometry">
            <mxPoint x="435" y="190" as="targetPoint" />
          </mxGeometry>
        </mxCell>
        <mxCell id="HcXDAk4co6BFIyga0vMn-32" value="Pedido" style="whiteSpace=wrap;html=1;align=center;" parent="1" vertex="1">
          <mxGeometry x="385" y="230" width="100" height="40" as="geometry" />
        </mxCell>
        <mxCell id="HcXDAk4co6BFIyga0vMn-35" style="edgeStyle=orthogonalEdgeStyle;rounded=0;orthogonalLoop=1;jettySize=auto;html=1;endArrow=none;endFill=0;" parent="1" source="HcXDAk4co6BFIyga0vMn-34" edge="1">
          <mxGeometry relative="1" as="geometry">
            <mxPoint x="435" y="420" as="targetPoint" />
          </mxGeometry>
        </mxCell>
        <mxCell id="HcXDAk4co6BFIyga0vMn-36" style="edgeStyle=orthogonalEdgeStyle;rounded=0;orthogonalLoop=1;jettySize=auto;html=1;endArrow=none;endFill=0;" parent="1" source="HcXDAk4co6BFIyga0vMn-34" target="HcXDAk4co6BFIyga0vMn-32" edge="1">
          <mxGeometry relative="1" as="geometry" />
        </mxCell>
        <mxCell id="HcXDAk4co6BFIyga0vMn-34" value="possui" style="shape=rhombus;perimeter=rhombusPerimeter;whiteSpace=wrap;html=1;align=center;" parent="1" vertex="1">
          <mxGeometry x="375" y="310" width="120" height="60" as="geometry" />
        </mxCell>
        <mxCell id="HcXDAk4co6BFIyga0vMn-37" value="inclui" style="shape=rhombus;perimeter=rhombusPerimeter;whiteSpace=wrap;html=1;align=center;" parent="1" vertex="1">
          <mxGeometry x="230" y="415" width="120" height="60" as="geometry" />
        </mxCell>
        <mxCell id="HcXDAk4co6BFIyga0vMn-46" value="Aluno" style="whiteSpace=wrap;html=1;align=center;" parent="1" vertex="1">
          <mxGeometry x="385" y="60" width="100" height="40" as="geometry" />
        </mxCell>
        <mxCell id="HcXDAk4co6BFIyga0vMn-50" style="edgeStyle=orthogonalEdgeStyle;rounded=0;orthogonalLoop=1;jettySize=auto;html=1;endArrow=none;endFill=0;" parent="1" source="HcXDAk4co6BFIyga0vMn-48" target="HcXDAk4co6BFIyga0vMn-46" edge="1">
          <mxGeometry relative="1" as="geometry">
            <mxPoint x="435" y="130" as="sourcePoint" />
          </mxGeometry>
        </mxCell>
        <mxCell id="HcXDAk4co6BFIyga0vMn-48" value="pega" style="shape=rhombus;perimeter=rhombusPerimeter;whiteSpace=wrap;html=1;align=center;" parent="1" vertex="1">
          <mxGeometry x="375" y="130" width="120" height="60" as="geometry" />
        </mxCell>
        <mxCell id="HcXDAk4co6BFIyga0vMn-54" value="&lt;font style=&quot;font-size: 16px&quot;&gt;Subgrupo GATOS&lt;br&gt;Guilhermo de Luiggi Mocelim de Oliveira 223325&lt;br&gt;Luiz Fernando Lima Leite 248405&lt;br&gt;Sara Beatriz da SIlva Oliveira 231288&lt;/font&gt;" style="text;html=1;strokeColor=none;fillColor=none;align=center;verticalAlign=middle;whiteSpace=wrap;rounded=0;" parent="1" vertex="1">
          <mxGeometry x="-20" y="-45" width="360" height="100" as="geometry" />
        </mxCell>
        <mxCell id="9sg7S3EA_mHytwgNz2Ep-7" style="edgeStyle=orthogonalEdgeStyle;rounded=0;orthogonalLoop=1;jettySize=auto;html=1;endArrow=none;endFill=0;" edge="1" parent="1" source="9sg7S3EA_mHytwgNz2Ep-1" target="HcXDAk4co6BFIyga0vMn-46">
          <mxGeometry relative="1" as="geometry" />
        </mxCell>
        <mxCell id="9sg7S3EA_mHytwgNz2Ep-1" value="nome" style="ellipse;whiteSpace=wrap;html=1;" vertex="1" parent="1">
          <mxGeometry x="435" y="-10" width="60" height="30" as="geometry" />
        </mxCell>
        <mxCell id="9sg7S3EA_mHytwgNz2Ep-6" style="edgeStyle=orthogonalEdgeStyle;rounded=0;orthogonalLoop=1;jettySize=auto;html=1;entryX=0.25;entryY=0;entryDx=0;entryDy=0;strokeColor=default;endArrow=none;endFill=0;" edge="1" parent="1" source="9sg7S3EA_mHytwgNz2Ep-3" target="HcXDAk4co6BFIyga0vMn-46">
          <mxGeometry relative="1" as="geometry" />
        </mxCell>
        <mxCell id="9sg7S3EA_mHytwgNz2Ep-3" value="RA" style="ellipse;whiteSpace=wrap;html=1;fontStyle=4" vertex="1" parent="1">
          <mxGeometry x="365" y="-10" width="60" height="30" as="geometry" />
        </mxCell>
        <mxCell id="9sg7S3EA_mHytwgNz2Ep-16" style="edgeStyle=orthogonalEdgeStyle;rounded=0;orthogonalLoop=1;jettySize=auto;html=1;entryX=0;entryY=0.75;entryDx=0;entryDy=0;endArrow=none;endFill=0;" edge="1" parent="1" source="9sg7S3EA_mHytwgNz2Ep-15" target="HcXDAk4co6BFIyga0vMn-16">
          <mxGeometry relative="1" as="geometry" />
        </mxCell>
        <mxCell id="9sg7S3EA_mHytwgNz2Ep-15" value="data" style="ellipse;whiteSpace=wrap;html=1;fontStyle=4" vertex="1" parent="1">
          <mxGeometry x="40" y="360" width="60" height="30" as="geometry" />
        </mxCell>
        <mxCell id="9sg7S3EA_mHytwgNz2Ep-18" style="edgeStyle=orthogonalEdgeStyle;rounded=0;orthogonalLoop=1;jettySize=auto;html=1;endArrow=none;endFill=0;" edge="1" parent="1" source="9sg7S3EA_mHytwgNz2Ep-17">
          <mxGeometry relative="1" as="geometry">
            <mxPoint x="131" y="420" as="targetPoint" />
          </mxGeometry>
        </mxCell>
        <mxCell id="9sg7S3EA_mHytwgNz2Ep-17" value="refeicao" style="ellipse;whiteSpace=wrap;html=1;fontStyle=4" vertex="1" parent="1">
          <mxGeometry x="90" y="325" width="60" height="30" as="geometry" />
        </mxCell>
        <mxCell id="9sg7S3EA_mHytwgNz2Ep-19" value="id" style="ellipse;whiteSpace=wrap;html=1;fontStyle=4" vertex="1" parent="1">
          <mxGeometry x="519" y="390" width="60" height="30" as="geometry" />
        </mxCell>
        <mxCell id="9sg7S3EA_mHytwgNz2Ep-20" value="nome" style="ellipse;whiteSpace=wrap;html=1;fontStyle=0" vertex="1" parent="1">
          <mxGeometry x="560" y="430" width="60" height="30" as="geometry" />
        </mxCell>
        <mxCell id="9sg7S3EA_mHytwgNz2Ep-21" value="preco" style="ellipse;whiteSpace=wrap;html=1;fontStyle=0" vertex="1" parent="1">
          <mxGeometry x="520" y="460" width="60" height="30" as="geometry" />
        </mxCell>
        <mxCell id="9sg7S3EA_mHytwgNz2Ep-27" style="edgeStyle=orthogonalEdgeStyle;rounded=0;orthogonalLoop=1;jettySize=auto;html=1;entryX=1;entryY=0.75;entryDx=0;entryDy=0;endArrow=none;endFill=0;" edge="1" parent="1" source="9sg7S3EA_mHytwgNz2Ep-26" target="HcXDAk4co6BFIyga0vMn-32">
          <mxGeometry relative="1" as="geometry" />
        </mxCell>
        <mxCell id="9sg7S3EA_mHytwgNz2Ep-26" value="preco" style="ellipse;whiteSpace=wrap;html=1;fontStyle=0" vertex="1" parent="1">
          <mxGeometry x="530" y="260" width="60" height="30" as="geometry" />
        </mxCell>
        <mxCell id="9sg7S3EA_mHytwgNz2Ep-33" style="edgeStyle=orthogonalEdgeStyle;rounded=0;orthogonalLoop=1;jettySize=auto;html=1;entryX=0.5;entryY=0;entryDx=0;entryDy=0;endArrow=none;endFill=0;" edge="1" parent="1" source="9sg7S3EA_mHytwgNz2Ep-32" target="HcXDAk4co6BFIyga0vMn-29">
          <mxGeometry relative="1" as="geometry" />
        </mxCell>
        <mxCell id="9sg7S3EA_mHytwgNz2Ep-32" value="quantidade presente" style="ellipse;whiteSpace=wrap;html=1;fontStyle=0" vertex="1" parent="1">
          <mxGeometry x="540" y="530" width="80" height="38" as="geometry" />
        </mxCell>
        <mxCell id="9sg7S3EA_mHytwgNz2Ep-38" style="edgeStyle=orthogonalEdgeStyle;rounded=0;orthogonalLoop=1;jettySize=auto;html=1;endArrow=none;endFill=0;entryX=0.819;entryY=-0.03;entryDx=0;entryDy=0;entryPerimeter=0;" edge="1" parent="1" source="9sg7S3EA_mHytwgNz2Ep-37" target="HcXDAk4co6BFIyga0vMn-27">
          <mxGeometry relative="1" as="geometry" />
        </mxCell>
        <mxCell id="9sg7S3EA_mHytwgNz2Ep-37" value="valor de referencia" style="ellipse;whiteSpace=wrap;html=1;fontStyle=0" vertex="1" parent="1">
          <mxGeometry x="740" y="538" width="100" height="35" as="geometry" />
        </mxCell>
        <mxCell id="9sg7S3EA_mHytwgNz2Ep-41" style="edgeStyle=orthogonalEdgeStyle;rounded=0;orthogonalLoop=1;jettySize=auto;html=1;entryX=0.25;entryY=0;entryDx=0;entryDy=0;endArrow=none;endFill=0;" edge="1" parent="1" source="9sg7S3EA_mHytwgNz2Ep-39" target="HcXDAk4co6BFIyga0vMn-27">
          <mxGeometry relative="1" as="geometry" />
        </mxCell>
        <mxCell id="9sg7S3EA_mHytwgNz2Ep-39" value="nome" style="ellipse;whiteSpace=wrap;html=1;fontStyle=0" vertex="1" parent="1">
          <mxGeometry x="670" y="540.5" width="60" height="30" as="geometry" />
        </mxCell>
        <mxCell id="9sg7S3EA_mHytwgNz2Ep-43" style="edgeStyle=orthogonalEdgeStyle;rounded=0;orthogonalLoop=1;jettySize=auto;html=1;endArrow=none;endFill=0;" edge="1" parent="1" source="9sg7S3EA_mHytwgNz2Ep-42">
          <mxGeometry relative="1" as="geometry">
            <mxPoint x="380" y="620" as="targetPoint" />
          </mxGeometry>
        </mxCell>
        <mxCell id="9sg7S3EA_mHytwgNz2Ep-42" value="nome" style="ellipse;whiteSpace=wrap;html=1;fontStyle=0" vertex="1" parent="1">
          <mxGeometry x="270" y="595" width="60" height="30" as="geometry" />
        </mxCell>
        <mxCell id="9sg7S3EA_mHytwgNz2Ep-46" style="edgeStyle=orthogonalEdgeStyle;rounded=0;orthogonalLoop=1;jettySize=auto;html=1;entryX=0;entryY=0.75;entryDx=0;entryDy=0;endArrow=none;endFill=0;" edge="1" parent="1" source="9sg7S3EA_mHytwgNz2Ep-45" target="HcXDAk4co6BFIyga0vMn-15">
          <mxGeometry relative="1" as="geometry" />
        </mxCell>
        <mxCell id="9sg7S3EA_mHytwgNz2Ep-45" value="codigo" style="ellipse;whiteSpace=wrap;html=1;fontStyle=4" vertex="1" parent="1">
          <mxGeometry x="245" y="640" width="90" height="30" as="geometry" />
        </mxCell>
        <mxCell id="9sg7S3EA_mHytwgNz2Ep-48" value="1" style="text;html=1;align=center;verticalAlign=middle;resizable=0;points=[];autosize=1;strokeColor=none;fillColor=none;" vertex="1" parent="1">
          <mxGeometry x="435" y="100" width="30" height="30" as="geometry" />
        </mxCell>
        <mxCell id="9sg7S3EA_mHytwgNz2Ep-50" value="n" style="text;html=1;align=center;verticalAlign=middle;resizable=0;points=[];autosize=1;strokeColor=none;fillColor=none;" vertex="1" parent="1">
          <mxGeometry x="435" y="200" width="30" height="30" as="geometry" />
        </mxCell>
        <mxCell id="9sg7S3EA_mHytwgNz2Ep-51" value="n" style="text;html=1;align=center;verticalAlign=middle;resizable=0;points=[];autosize=1;strokeColor=none;fillColor=none;" vertex="1" parent="1">
          <mxGeometry x="435" y="270" width="30" height="30" as="geometry" />
        </mxCell>
        <mxCell id="9sg7S3EA_mHytwgNz2Ep-52" value="n" style="text;html=1;align=center;verticalAlign=middle;resizable=0;points=[];autosize=1;strokeColor=none;fillColor=none;" vertex="1" parent="1">
          <mxGeometry x="435" y="390" width="30" height="30" as="geometry" />
        </mxCell>
        <mxCell id="9sg7S3EA_mHytwgNz2Ep-53" value="n" style="text;html=1;align=center;verticalAlign=middle;resizable=0;points=[];autosize=1;strokeColor=none;fillColor=none;" vertex="1" parent="1">
          <mxGeometry x="350" y="415" width="30" height="30" as="geometry" />
        </mxCell>
        <mxCell id="9sg7S3EA_mHytwgNz2Ep-54" value="n" style="text;html=1;align=center;verticalAlign=middle;resizable=0;points=[];autosize=1;strokeColor=none;fillColor=none;" vertex="1" parent="1">
          <mxGeometry x="200" y="415" width="30" height="30" as="geometry" />
        </mxCell>
        <mxCell id="9sg7S3EA_mHytwgNz2Ep-55" value="n" style="text;html=1;align=center;verticalAlign=middle;resizable=0;points=[];autosize=1;strokeColor=none;fillColor=none;" vertex="1" parent="1">
          <mxGeometry x="435" y="470" width="30" height="30" as="geometry" />
        </mxCell>
        <mxCell id="9sg7S3EA_mHytwgNz2Ep-56" value="n" style="text;html=1;align=center;verticalAlign=middle;resizable=0;points=[];autosize=1;strokeColor=none;fillColor=none;" vertex="1" parent="1">
          <mxGeometry x="435" y="568" width="30" height="30" as="geometry" />
        </mxCell>
        <mxCell id="9sg7S3EA_mHytwgNz2Ep-57" value="n" style="text;html=1;align=center;verticalAlign=middle;resizable=0;points=[];autosize=1;strokeColor=none;fillColor=none;" vertex="1" parent="1">
          <mxGeometry x="380" y="650" width="30" height="30" as="geometry" />
        </mxCell>
        <mxCell id="9sg7S3EA_mHytwgNz2Ep-58" value="n" style="text;html=1;align=center;verticalAlign=middle;resizable=0;points=[];autosize=1;strokeColor=none;fillColor=none;" vertex="1" parent="1">
          <mxGeometry x="460" y="650" width="30" height="30" as="geometry" />
        </mxCell>
        <mxCell id="9sg7S3EA_mHytwgNz2Ep-59" value="n" style="text;html=1;align=center;verticalAlign=middle;resizable=0;points=[];autosize=1;strokeColor=none;fillColor=none;" vertex="1" parent="1">
          <mxGeometry x="490" y="595" width="30" height="30" as="geometry" />
        </mxCell>
        <mxCell id="9sg7S3EA_mHytwgNz2Ep-60" value="n" style="text;html=1;align=center;verticalAlign=middle;resizable=0;points=[];autosize=1;strokeColor=none;fillColor=none;" vertex="1" parent="1">
          <mxGeometry x="660" y="595" width="30" height="30" as="geometry" />
        </mxCell>
      </root>
    </mxGraphModel>
  </diagram>
</mxfile>
